<?xml version="1.0" standalone="no"?>
<!DOCTYPE svg PUBLIC "-//W3C//DTD SVG 20010904//EN"
 "http://www.w3.org/TR/2001/REC-SVG-20010904/DTD/svg10.dtd">
<svg version="1.0" xmlns="http://www.w3.org/2000/svg"
 width="64.000000pt" height="64.000000pt" viewBox="0 0 64.000000 64.000000"
 preserveAspectRatio="xMidYMid meet">

<g transform="translate(0.000000,64.000000) scale(0.100000,-0.100000)"
fill="#000000" stroke="none">
<path d="M195 450 c-123 -112 -149 -150 -101 -150 l26 0 0 -105 0 -105 75 0
75 0 0 75 0 75 50 0 50 0 0 -75 0 -75 75 0 75 0 0 105 0 105 25 0 c50 0 26 35
-96 146 -66 60 -123 110 -127 111 -4 1 -61 -47 -127 -107z"/>
</g>
</svg>
